<svg width="320" height="330" viewBox="0 0 320 330" fill="none" xmlns="http://www.w3.org/2000/svg">
<g clip-path="url(#clip0_164_823)">
<path d="M158.818 0.0169032C178.642 -1.61152 199.123 21.4561 212.79 33.9062C214.398 35.3716 216.836 38.7261 218.415 40.5511C221.09 34.385 223.956 28.4289 228.818 23.5317C237.303 14.9836 252.089 7.72814 264.334 7.57473C272.351 7.47407 278.444 11.5273 283.876 17.1206C291.638 25.1085 300.465 38.4427 302.301 49.3804C303.293 55.2957 303.081 64.2966 303.029 70.4659C306.362 73.036 307.324 74.1956 308.502 78.1786C307.536 82.2805 305.299 86.6079 301.576 88.8719C300.443 89.6567 298.608 90.1467 297.924 91.4174C292.403 101.7 287.268 111.909 280.425 121.47C276.702 126.675 272.853 131.864 268.714 136.75C266.033 139.918 262.921 142.74 260.373 146.012C258.71 148.174 260.245 148.865 261.668 151.101C266.07 158.199 272.158 165.079 276.089 172.359C281.053 181.552 284.913 190.987 290.898 199.664C292.775 202.383 294.811 205.849 296.523 208.716C302.082 218.032 308.888 227.701 310.701 238.581C311.552 243.84 311.533 251.21 308.1 255.634C303.928 261.005 297.058 260.927 291.054 262.353C284.333 264.463 283.185 266.071 275.483 267.171C276.118 269.544 276.594 271.963 276.91 274.399C277.515 278.834 279.592 294.743 277.122 297.994C274.584 298.41 274.447 295.635 274.224 293.833C272.351 296.935 270.408 299.045 266.902 300.144C264.575 300.876 257.027 303.944 255.881 300.898C256.328 298.328 260.68 294.736 262.845 292.136C263.347 283.745 262.522 276.906 260.611 268.764C252.54 268.504 251.052 268.17 243.683 271.361C244.241 275.952 248.65 299.249 245.035 300.713C242.731 299.383 243.324 296.638 241.587 293.116L241.36 292.663C240.343 302.165 237.446 301.169 229.009 302.603C226.85 302.967 223.822 304.616 222.072 303.313C221.694 298.499 232.894 297.329 229.112 279.295C218.807 282.664 217.346 279.105 211.855 271.929C209.42 268.746 203.505 279.157 198.592 278.753C194.178 278.389 190.136 277.902 189.131 272.067C187.169 255.923 194.818 240.3 192.797 223.89C192.492 221.416 192.524 212.906 193.977 211.35L194.53 211.606C195.283 213.107 195.143 215.718 195.363 217.438C195.947 222.014 196.464 226.657 196.116 231.274C195.448 240.141 189.559 265.373 192.282 272.104C192.828 273.452 193.73 274.548 195.12 275.042C202.065 277.497 203.293 270.703 208.258 268.516C214.438 265.797 216.534 275.398 221.424 277.051C227.599 279.143 237.517 270.031 242.889 267.349C245.143 266.224 247.338 265.689 249.83 265.362C257.212 264.385 264.85 265.228 272.333 264.303C275.925 263.858 279.689 263.293 283.126 262.16C285.931 261.239 288.732 259.935 291.593 259.244C294.766 258.475 297.917 258.784 300.978 257.368C303.943 255.998 306.417 253.736 307.476 250.571C310.114 242.67 306.536 233.681 303.144 226.624C296.795 215.09 289.368 204.047 282.988 192.625C277.508 182.815 274.153 173.329 267.08 164.161C263.446 159.451 261.118 154.693 256.992 149.938C244.791 162.211 232.833 174.484 220.33 186.452C212.267 194.174 202.347 202.372 194.861 210.388C192.553 209.422 190.241 208.326 187.965 207.279C187.979 222.181 187.579 236.946 187.217 251.845C186.988 261.213 186.987 270.577 185.811 279.889L182.041 284.703C182.792 288.912 183.921 298.15 181.955 301.879C178.634 304.557 152.584 304.126 150.603 302.039C151.107 299.713 162.026 292.136 164.499 290.769L164.757 288.637C164.924 287.188 164.806 287.151 165.638 285.951L166.182 285.981C167.011 287.407 166.76 289.068 166.733 290.795C169.653 290.765 177.489 290.981 179.863 290.108C180.271 289.101 180.231 286.676 179.638 285.907C176.233 281.49 169.966 285.502 164.627 283.266C164.129 275.261 163.304 267.453 163.281 259.389C163.53 252.254 163.564 246.199 162.911 239.115C161.517 224.02 162.273 211.944 158.6 196.901C157.543 200.86 156.084 206.198 155.518 210.195C154.844 214.626 154.943 219.41 154.313 223.819C152.511 236.448 151.872 249.052 151.779 261.796C151.744 266.562 150.852 273.173 151.438 277.783C149.998 279.897 148.747 281.431 147.114 283.407C147.764 288.997 148.32 293.135 148.187 298.774C147.22 299.81 145.851 301.01 144.79 301.99C143.496 302.139 141.941 302.18 140.609 302.232C135.646 302.432 130.811 304.394 125.844 304.167C120.995 303.944 116.151 302.21 112.581 298.885C111.91 298.257 112.04 298.09 112.08 297.329C113.512 296.155 116.167 297.017 119.107 295.453C122.112 293.856 124.189 292.782 126.718 290.264C127.899 289.09 129.861 286.014 130.981 285.446L131.266 285.688C131.029 286.865 130.954 287.251 130.917 288.447L131.457 288.938C133.189 288.99 144.576 290.275 145.085 289.892C145.316 287.678 144.898 284.781 144.662 282.512C142.23 282.983 136.383 283.44 134.105 282.378C133.621 282.155 133.462 281.368 133.187 280.714C131.828 280.45 132.933 281.275 130.945 282.018C129.596 280.989 129.598 279.47 129.581 277.846C129.399 260.931 130.159 244.048 129.956 227.129C129.908 223.091 130.685 218.545 130.794 214.396C131.26 196.563 130.665 177.626 132.618 159.897C127.898 154.585 125.03 148.988 121.145 143.702C105.712 122.699 101.698 114.468 98.2144 88.2408C97.2316 87.0142 96.8356 86.9084 96.597 85.482C98.0211 82.3871 103.838 82.7233 106.622 79.2603C104.742 79.4757 101.924 80.472 100.897 78.8001C101.479 76.3552 106.502 73.3279 108.928 70.886L109.302 70.506C107.327 71.123 104.818 72.2151 102.941 71.5903C102.345 69.5518 106.248 66.6931 107.29 64.8132C107.915 63.6844 108.548 62.6035 109.138 61.4412C104.804 63.4582 101.524 65.3043 97.4308 67.8713C96.9054 68.2012 96.2418 67.9497 95.738 67.7711C96.2578 65.8737 98.0635 65.8811 98.2429 64.1822C99.8309 49.1359 104.299 35.2368 112.686 22.4608C122.566 7.41129 141.444 1.11379 158.818 0.0169032Z" fill="#353131"/>
<path d="M158.804 2.98674C160.44 2.90948 162.081 2.96743 163.708 3.15984C180.6 5.20614 199.924 25.6573 211.774 37.2412C213.75 39.1731 216.116 44.6635 219.094 44.997C220.507 44.3481 222.655 39.5717 223.236 37.9793C229.121 21.8499 250.055 10.1029 266.87 11.0353C280.205 11.7748 293.77 33.734 297.82 45.3573C299.7 50.7578 299.956 63.842 299.477 69.8699C296.672 70.1087 287.253 71.8289 288.791 75.9876C289.906 77.1023 290.783 77.1647 292.325 77.5692C290.471 78.5937 287.74 79.9926 286.93 81.9226C287.38 83.707 287.502 82.7245 288.996 84.3663C288.149 85.1687 287.554 85.7685 286.781 86.6426C287.086 88.1543 288.955 88.6554 288.806 89.0703C288.268 90.5903 287.253 90.5026 287.543 92.2258C289.074 93.4497 290.125 93.2127 292.176 93.3635C290.887 97.3707 287.528 103.258 285.433 106.956C272.024 130.658 252.559 149.619 233.736 169.008C229.856 173.332 197.645 204.816 194.399 205.106C191.57 205.354 188.839 204.21 186.428 202.851C180.006 199.226 174.743 193.684 169.005 189.111C163.428 184.665 157.559 180.627 152.165 175.94C138.457 164.02 114.789 133.237 108.103 116.961C104.029 107.047 102.002 95.9811 101.268 85.3146C103.989 83.9663 109.776 81.7268 110.051 78.4165C109.276 76.9861 108.094 77.174 106.844 76.0723C107.953 74.1646 111.867 72.623 113.582 69.8286C113.661 67.2267 110.064 67.6817 108.169 67.6791C110.356 65.3984 113.196 62.3083 110.146 59.3806C107.052 58.6771 105.108 61.3927 101.824 62.0817L101.519 61.6382C103.066 48.2687 110.14 29.2726 119.128 19.232C128.164 9.13755 145.414 3.71441 158.804 2.98674Z" fill="#EDEEE8"/>
<path d="M269.903 267.806L271.34 267.624C274.29 268.839 274.394 273.597 274.235 276.386C273.911 281.984 270.906 285.368 266.962 288.971L266.122 289.606L265.731 289.369C265.072 280.157 264.558 277.419 262.649 268.59C264.965 268.43 267.575 268.07 269.903 267.806Z" fill="#EDEEE8"/>
<path d="M297.917 71.958C301.457 71.1962 304.214 75.1246 305.503 77.9049C305.422 78.1682 305.336 78.4309 305.251 78.6924C303.716 83.2582 297.463 91.9378 291.853 89.8577C292.618 89.1571 293.042 89.0546 293.116 88.285L291.742 87.0926L291.504 86.9623L291.634 86.5295C293.061 85.9683 295.691 85.1507 296.196 83.6192L295.754 82.8544C294.164 81.827 292.44 81.7156 290.538 81.3842C292.752 80.463 299.418 78.7618 300.016 76.8173C298.99 74.9723 295.695 74.3282 293.67 73.7176C295.267 73.1585 296.401 72.6515 297.917 71.958Z" fill="#EDEEE8"/>
<path d="M239.976 273.53L240.317 273.645C241.163 274.775 241.414 277.345 241.345 278.645C241.051 284.247 235.651 290.297 231.885 294.019C231.418 293.614 231.88 291.954 231.994 291.018C232.514 286.75 231.72 282.337 231.004 278.118C233.727 276.892 237.24 274.949 239.976 273.53Z" fill="#EDEEE8"/>
<path d="M166.457 269.448C167.502 270.607 168.663 278.518 168.285 280.116C167.541 279.833 167.168 279.874 166.958 279.306C166.167 277.159 165.707 271.476 166.457 269.448Z" fill="#EDEEE8"/>
<path d="M167.443 259.548C167.635 260.885 167.074 264.793 166.806 266.241C166.608 267.315 166.686 266.992 165.787 267.567C165.394 266.067 164.484 262.605 165.076 261.186C165.563 260.02 166.226 260.049 167.443 259.548Z" fill="#EDEEE8"/>
<path d="M146.813 211.479C148.163 213.463 147.261 220.865 146.898 223.369L146.235 222.671C145.857 221.081 146.634 213.541 146.813 211.479Z" fill="#353131"/>
<path d="M133.575 292.258C134.174 292.418 133.971 292.347 134.494 292.711C131.959 295.311 129.48 297.191 126.419 299.122L125.778 299.063C126.118 298.283 132.367 293.313 133.575 292.258Z" fill="#EDEEE8"/>
<path d="M172.507 280.799C173.913 280.673 178.61 280.264 179.464 281.275L178.682 281.479C177.081 281.594 173.112 282.04 171.844 281.249L172.507 280.799Z" fill="#EDEEE8"/>
<path d="M138.272 226.575C138.714 226.768 138.714 226.85 139.09 227.195C139.284 229.424 138.995 232.967 138.446 235.133H138.031L138.272 226.575Z" fill="#EDEEE8"/>
<path d="M143.581 212.825C144.1 215.395 143.645 217.449 143.091 219.953C142.323 218.066 143.139 214.797 143.581 212.825Z" fill="#353131"/>
<path d="M133.047 197.347L133.518 197.778C133.989 199.553 133.825 201.046 133.774 202.889C132.612 201.418 132.95 199.178 133.047 197.347Z" fill="#353131"/>
<path d="M82.2239 199.018C84.4222 200.17 89.4618 206.291 91.5465 208.624C96.686 206.603 100.803 209.084 105.86 207.223C107.643 206.566 115.472 200.032 115.871 205.44C116.628 215.689 111.933 218.207 106.094 224.592C98.7922 232.578 101.417 250.497 100.794 260.325C100.538 264.17 98.5544 269.344 97.9499 273.3C95.7984 284.904 94.5266 293.444 95.4959 305.137C97.5977 306.355 99.2797 307.042 100.183 309.327C99.7968 313.056 94.3115 312.087 91.6643 311.908C87.3901 303.101 88.569 289.48 87.9062 279.158C85.2448 286.847 84.3862 301.623 85.4027 309.717C95.8983 315.01 84.1191 320.567 81.3838 316.785C77.2787 311.117 78.2061 297.749 77.9935 290.52C77.8743 287.14 77.6532 283.76 77.3307 280.391C74.7396 279.86 71.2137 279.236 68.8251 278.266C63.1287 275.963 59.2859 273.995 53.2443 272.42C51.8046 284.217 46.4206 284.362 41.6059 293.67C42.2464 297.433 42.8676 299.714 44.4158 303.19C46.4741 304.223 50.3593 305.772 48.9757 308.521C46.6268 310.177 44.2167 309.683 41.299 309.568C39.0932 305.315 34.8606 295.509 33.8872 291.07C35.3651 288.86 39.4327 283.062 37.2622 280.532C35.9544 281.279 33.8162 285.539 32.2294 286.836C29.6955 288.905 26.6975 290.257 24.1246 292.118C20.2774 294.903 19.2924 302.927 18.6066 307.377C20.2406 308.87 23.3411 311.901 21.0223 313.888C17.9965 316.484 12.6218 314.464 12.9885 309.917C13.5109 303.436 14.491 297.797 14.371 291.323C25.749 279.774 20.3706 280.506 21.6944 264.864C21.9359 262.012 24.5534 256.986 25.593 253.71C23.5101 250.215 24.8061 252.196 23.5658 250.129C22.9825 247.288 21.2761 244.959 25.2196 244.755C26.0464 244.755 26.4599 245.581 27.7002 247.235C27.7002 247.235 28.9405 248.062 30.3431 249.323C34.9535 248.172 38.8784 246.448 43.7916 245.872C57.7826 244.238 65.997 246.968 78.6549 239.183C81.3496 233.656 81.6164 231.36 82.0894 225.302C81.3842 224.904 80.6824 224.499 79.9842 224.091C78.3279 223.114 77.3095 222.449 75.9623 221.034C74.2574 219.243 67.3319 209.043 66.8422 207.138C68.4543 203.312 81.3593 210.648 83.8921 211.818C83.0884 208.115 81.259 202.461 82.2239 199.018Z" fill="#353131"/>
<path d="M45.6513 271.833L51.7405 272.357C49.5614 283.181 45.1078 283.251 40.7485 292.37C39.2163 295.576 41.9062 302.503 43.6224 305.668C45.2857 306.002 46.1763 305.932 47.1932 307.035L47.0695 308.194C41.1609 308.242 42.5297 307.492 40.0649 302.489C38.4491 299.205 37.3683 295.446 35.7276 292.225L35.5637 291.91C38.5776 287.003 41.4871 283.652 37.6458 278.322C39.9999 275.079 41.6042 272.906 45.6513 271.833Z" fill="white"/>
<path d="M99.3551 219.833C101.693 216.211 109.033 205.488 113.883 208.14C116.973 212.285 106.44 216.341 105.949 219.877L106.548 220.449L107.48 221.256C99.6019 227.243 101.585 233.892 98.5827 240.359L98.2342 240.236C95.182 236.028 97.61 229.542 96.4233 226.671C95.4358 225.973 95.2278 225.895 94.5698 224.918C94.5181 221.475 96.6663 220.929 99.3551 219.833Z" fill="white"/>
<path d="M70.0273 208.85C73.3727 209.392 87.2905 215.02 84.0403 219.525C82.945 219.384 81.522 217.542 79.82 216.621L79.3459 216.858L79.4042 217.962C81.5012 220.435 83.7817 220.625 84.4582 221.802L84.1045 222.267C77.3407 223.233 73.5079 213.582 70.0273 208.85Z" fill="white"/>
<path d="M89.9152 283.942C91.2557 286.126 90.7731 287.616 93.3839 288.901C94.3848 294.346 91.8803 298.893 94.552 307.046C96.0872 307.978 97.4819 308.643 98.5698 310.088C96.5992 310.337 94.6255 310.564 92.6493 310.768C90.6467 303.833 89.6703 291.367 89.9152 283.942Z" fill="white"/>
<path d="M93.5125 254.073C96.4588 255.414 94.7126 262.011 93.893 264.354C93.1465 266.494 92.2909 267.634 90.853 269.291C89.8213 268.307 88.9842 264.774 89.0544 263.467C89.2848 259.165 90.73 256.985 93.5125 254.073Z" fill="white"/>
<path d="M80.2194 295.78C81.0383 296.883 81.8768 297.971 82.7351 299.041C82.7626 302.707 82.5006 307.139 84.2313 310.478C85.1813 312.313 87.6579 313.219 87.1263 315.474L86.4969 315.57L85.2742 314.623L85.094 314.014C84.5801 315.236 84.1596 316.18 82.663 315.845C79.8965 311.889 80.1195 300.605 80.2194 295.78Z" fill="white"/>
<path d="M17.6385 300.689C18.1252 301.466 17.1083 307.197 16.9192 308.624L16.3979 307.78C16.101 304.946 16.7286 303.312 17.6385 300.689Z" fill="white"/>
<path d="M106.548 220.45C108.591 218.675 109.445 217.91 111.755 216.565C110.148 218.582 109.382 219.563 107.48 221.256L106.548 220.45Z" fill="white"/>
<path d="M42.2124 269.499L42.5338 270.03C41.3954 271.379 40.6363 271.665 39.1093 272.523L38.8154 272.318C39.1569 271.286 41.1847 270.186 42.2124 269.499Z" fill="white"/>
<path d="M237.72 204.716C239.938 206.161 240.763 212.851 241.332 215.763C242.513 221.81 243.836 228.076 245.507 234.049C245.639 234.524 245.305 235.46 245.147 235.869C244.056 235.278 243.664 234.755 243.078 233.644C240.984 229.688 236.73 207.881 237.72 204.716Z" fill="#353131"/>
<path d="M260.036 204.775C260.819 205.385 271.281 232.913 271.875 235.788C270.594 235.944 270.831 236.122 269.947 235.598C267.236 230.026 259.77 210.043 260.036 204.775Z" fill="#353131"/>
<path d="M211.722 214.822C214.429 219.276 216.913 243.543 217.621 249.779C216.915 249.775 216.747 249.716 216.046 249.597C214.807 247.929 214.658 237.841 214.475 235.025C214.145 229.936 211.438 218.886 211.722 214.822Z" fill="#353131"/>
<path d="M94.26 66.5342L94.776 66.8239C96.2466 70.9017 89.6525 77.1512 94.3792 81.3683L95.2769 82.1639L95.7123 82.541L95.6819 83.5023C94.3057 83.7604 93.8427 83.9959 92.6304 83.4707C88.8526 79.6273 91.9486 70.5882 94.26 66.5342Z" fill="#353131"/>
</g>
<defs>
<clipPath id="clip0_164_823">
<rect width="320" height="329.922" fill="white"/>
</clipPath>
</defs>
</svg>
