<svg width="8" height="215" viewBox="0 0 8 215" fill="none" xmlns="http://www.w3.org/2000/svg">
<path d="M3.03784 6.54297V213.391" stroke="#6F2A3C" stroke-width="2" stroke-linecap="round"/>
<path d="M3.32208 1C2.82471 1.05322 1.77698 1.79627 1.20177 2.74912C0.930945 3.19776 1.24224 3.81761 1.48725 4.33361C1.72419 4.8326 2.20652 5.16608 2.72586 5.41164C3.23237 5.65114 3.93382 5.64081 4.66876 5.63145C5.31181 5.62326 5.78297 5.2534 6.09265 4.81022C6.41016 4.35583 6.3498 3.71686 6.23949 3.12558C5.6107 2.06694 4.96274 1.60348 4.47316 1.38147C4.22197 1.28783 3.96523 1.23282 3.20057 1.12056" stroke="#6F2A3C" stroke-width="2" stroke-linecap="round"/>
<path d="M3.01685 2.8385C3.26986 3.20029 3.58078 3.54924 3.92651 3.66888C4.08776 3.72468 4.23587 3.37264 4.20931 3.16879C4.18274 2.96494 3.98102 2.81823 3.7579 2.76969C3.53478 2.72116 3.29638 2.77524 3.19968 2.92945C3.10297 3.08366 3.15519 3.33636 3.30875 3.53865C3.63189 3.96433 4.2113 4.08783 4.6842 4.12393C4.92243 4.10595 5.1571 4.01425 5.33207 3.85699C5.50705 3.69972 5.61521 3.47966 5.61551 3.19736" stroke="#6F2A3C" stroke-width="2" stroke-linecap="round"/>
<path d="M2.81161 64.1244C2.77493 64.1244 2.51763 64.1604 2.09223 64.3324C1.64109 64.5148 1.60793 65.1978 1.56137 65.7076C1.515 66.2154 1.71429 66.7128 2.02283 67.1135C2.32142 67.5012 2.95204 67.4985 3.48796 67.5346C4.00598 67.5696 4.44616 67.2395 4.81846 66.8236C5.17302 66.4275 5.46718 66.0542 5.52162 65.5738C5.63319 64.5891 4.59782 63.7774 3.82065 63.2376C3.61293 63.0933 3.30412 63.1439 3.05238 63.2158C2.54578 63.3603 2.24382 63.8343 2.06793 64.2981C1.88178 64.7889 2.01862 65.3298 2.20857 65.739C2.39912 66.1495 3.03917 66.2055 3.54112 66.2598C3.78912 66.2419 4.02348 66.1319 4.22549 65.9835C4.4275 65.8351 4.59006 65.6517 4.8668 65.0738" stroke="#6F2A3C" stroke-width="2" stroke-linecap="round"/>
<path d="M3.35495 127.224C3.07931 127.059 2.28409 126.817 1.68281 126.897C1.17847 126.965 1.07708 127.67 1.01175 128.151C0.944457 128.647 1.1828 129.127 1.45486 129.518C1.7318 129.916 2.527 129.967 3.34613 129.93C3.94146 129.903 4.35305 129.45 4.75294 129.071C5.1692 128.677 5.2293 128.062 5.12844 127.535C5.02305 126.984 4.4163 126.689 4.00062 126.412C3.5878 126.137 3.04646 126.058 2.59257 126.185C2.39565 126.24 2.41344 126.565 2.512 126.803C2.61056 127.042 2.82689 127.258 3.07385 127.397C3.32081 127.535 3.59185 127.59 4.36277 127.645" stroke="#6F2A3C" stroke-width="2" stroke-linecap="round"/>
<path d="M3.33885 188.049C3.19215 188.049 2.87817 187.994 2.43443 188.019C1.38733 188.078 1.48666 189.684 1.54901 190.175C1.60735 190.635 2.24873 190.779 2.8035 190.87C3.4419 190.975 4.18177 190.76 4.79426 190.363C5.25146 190.067 5.15437 189.372 5.0624 188.827C5.01874 188.568 4.8604 188.373 4.67507 188.223C4.29574 187.917 3.54725 187.869 2.76091 187.922C2.42607 187.945 2.24965 188.156 2.12768 188.366C1.87882 188.795 1.894 189.342 1.99315 189.797C2.74762 190.328 3.54912 190.401 4.0763 190.291C4.31503 190.181 4.4953 189.961 4.68104 189.734" stroke="#6F2A3C" stroke-width="2" stroke-linecap="round"/>
</svg>
